<svg width="199" height="40" viewBox="0 0 199 40" fill="none" xmlns="http://www.w3.org/2000/svg">
<path fill-rule="evenodd" clip-rule="evenodd" d="M4.22004 0C1.88953 0 0.000268233 1.84318 0.000268233 4.11686V22.2568C0.000268233 24.5304 1.88953 26.3736 4.22004 26.3736H12.8574C20.3223 26.3736 26.3738 20.4697 26.3738 13.1868C26.3738 5.90394 20.3223 0 12.8574 0H4.22004ZM13.5351 19.6749L6.64894 6.81855H13.1871C16.8285 6.81855 19.7805 9.69851 19.7805 13.2511C19.7805 16.6899 17.0147 19.4984 13.5351 19.6749Z" fill="url(#paint0_linear_71_3812)"/>
<path fill-rule="evenodd" clip-rule="evenodd" d="M6.64892 6.81877L13.535 19.6751C13.4198 19.681 13.3038 19.6839 13.187 19.6839H6.59364C2.95221 19.6839 0.000244141 16.804 0.000244141 13.2514C0.000244141 9.69874 2.95221 6.81877 6.59364 6.81877H6.64892Z" fill="url(#paint1_linear_71_3812)" fill-opacity="0.6"/>
<path d="M95.3419 26.5398V2.15871e-06H98.7121V26.5398H95.3419Z" fill="white"/>
<path d="M88.1208 11.1636C87.3064 10.63 86.1269 10.3632 84.5822 10.3632H69.2902V19.0834C69.2902 20.5719 69.5992 21.611 70.217 22.2008C70.8349 22.7624 71.8319 23.0433 73.208 23.0433H74.5982V26.2449H73.3765C68.3775 26.2449 65.878 23.8577 65.878 19.0834V10.3632H62.7185V7.16156H65.878V3.45442H69.2481V7.16156H84.4137C87.3907 7.16156 89.5251 7.76537 90.817 8.973C92.1369 10.1806 92.7969 12.1465 92.7969 14.8707V26.5398H89.4268V23.8858C89.3987 23.8858 89.3706 23.9139 89.3425 23.9701C88.6685 24.7284 87.9664 25.3322 87.2362 25.7815C86.506 26.2028 85.4388 26.4555 84.0346 26.5398C81.6474 26.7083 79.6674 26.287 78.0947 25.276C76.522 24.265 75.7075 22.7484 75.6514 20.7263C75.5952 18.6762 76.3114 17.0473 77.7998 15.8396C79.2883 14.632 81.3525 14.0282 83.9924 14.0282H89.3847C89.3847 12.624 88.9634 11.6691 88.1208 11.1636ZM89.4268 17.2298H83.9924C82.504 17.2298 81.3385 17.5107 80.4959 18.0724C79.6815 18.606 79.2602 19.3361 79.2321 20.2629C79.204 21.4425 79.6534 22.285 80.5802 22.7905C81.5351 23.296 82.7567 23.4365 84.2452 23.2118C85.2001 23.0714 86.0566 22.7344 86.8149 22.2008C87.5732 21.6391 88.1911 21.0493 88.6685 20.4314C89.174 19.8136 89.4268 19.5047 89.4268 19.5047V17.2298Z" fill="white"/>
<path d="M60.8728 1.89565C60.4515 1.47438 59.932 1.26375 59.3141 1.26375C58.7243 1.26375 58.2188 1.47438 57.7976 1.89565C57.3763 2.31692 57.1657 2.83648 57.1657 3.45433C57.1657 4.0441 57.3763 4.54962 57.7976 4.97089C58.2188 5.39216 58.7243 5.60279 59.3141 5.60279C59.932 5.60279 60.4515 5.39216 60.8728 4.97089C61.2941 4.54962 61.5047 4.0441 61.5047 3.45433C61.5047 2.83648 61.2941 2.31692 60.8728 1.89565ZM57.6291 26.5399V7.16147H60.9992V26.5399H57.6291Z" fill="white"/>
<path d="M51.6198 26.5399V23.886C49.7381 25.6272 47.6458 26.5119 45.3429 26.5399C43.5455 26.568 41.8885 26.1468 40.3719 25.2762C38.8835 24.4055 37.6899 23.2119 36.7912 21.6954C35.9206 20.1507 35.4853 18.4938 35.4853 16.7245C35.4853 14.927 35.9206 13.2701 36.7912 11.7535C37.6899 10.237 38.8835 9.04337 40.3719 8.17275C41.8885 7.27405 43.5455 6.83874 45.3429 6.86682C46.4663 6.89491 47.5616 7.14767 48.6288 7.6251C49.7241 8.10254 50.7211 8.74848 51.6198 9.56293V7.16171H55.032V25.6974C55.032 28.4216 54.372 30.3875 53.0521 31.5951C51.7602 32.8028 49.6258 33.4066 46.6488 33.4066H45.5395V30.2471H46.8173C48.362 30.2471 49.5415 29.9803 50.356 29.4467C51.1985 28.9412 51.6198 27.9723 51.6198 26.5399ZM51.6198 16.893V16.5981C51.5917 14.8849 50.9598 13.4245 49.7241 12.2169C48.5164 11.0093 47.056 10.4055 45.3429 10.4055C43.5736 10.4055 42.0711 11.0233 40.8353 12.259C39.6277 13.4947 39.0239 14.9832 39.0239 16.7245C39.0239 18.4657 39.6277 19.9542 40.8353 21.1899C42.0711 22.4256 43.5736 23.0434 45.3429 23.0434C47.028 23.0434 48.4883 22.4537 49.7241 21.2741C50.9598 20.0665 51.5917 18.6061 51.6198 16.893Z" fill="white"/>
<path d="M33.5975 1.89565C33.1762 1.47438 32.6566 1.26375 32.0388 1.26375C31.449 1.26375 30.9435 1.47438 30.5222 1.89565C30.101 2.31692 29.8903 2.83648 29.8903 3.45433C29.8903 4.0441 30.101 4.54962 30.5222 4.97089C30.9435 5.39216 31.449 5.60279 32.0388 5.60279C32.6566 5.60279 33.1762 5.39216 33.5975 4.97089C34.0187 4.54962 34.2294 4.0441 34.2294 3.45433C34.2294 2.83648 34.0187 2.31692 33.5975 1.89565ZM30.3537 26.5399V7.16147H33.7238V26.5399H30.3537Z" fill="white"/>
<path d="M195.64 26.3291V16.2158C195.64 14.1937 195.218 12.5508 194.376 11.287C193.533 10.0232 192.031 9.44744 189.868 9.55978C188.211 9.67212 186.512 10.5989 184.771 12.3401C184.322 12.7614 183.353 13.8707 181.864 15.6681C180.039 17.8868 178.677 19.4736 177.778 20.4284V26.3291H174.408V23.3773C173.958 23.8267 173.13 24.4024 171.922 25.1045C170.715 25.7785 169.324 26.0875 167.752 26.0313C165.673 25.9751 163.974 25.4556 162.654 24.4726C161.363 23.4616 160.688 22.0433 160.632 20.2178C160.576 18.1677 161.292 16.5388 162.781 15.3311C164.269 14.1235 166.333 13.5197 168.973 13.5197H174.366C174.366 12.1155 173.944 11.1606 173.102 10.6551C172.287 10.1215 171.108 9.85466 169.563 9.85466H165.797V6.95089H169.395C172.203 6.95089 174.253 7.18665 175.545 8.25386C176.865 9.32106 177.595 11.0342 177.736 13.3933V14.0252L174.408 17.7745V16.7213H168.973C167.485 16.7213 166.319 16.9881 165.477 17.5217C164.662 18.0553 164.241 18.7995 164.213 19.7544C164.185 20.6531 164.452 21.3693 165.013 21.9029C165.603 22.4084 166.404 22.7033 167.415 22.7875C168.482 22.8999 169.633 22.6331 170.869 21.9871C172.105 21.3131 173.284 20.4004 174.408 19.2489C176.009 17.62 177.834 15.4996 179.884 12.8878C180.053 12.6631 180.151 12.5367 180.179 12.5086V6.95089H183.549V9.05426C185.375 7.34111 187.481 6.44241 189.868 6.35816C193.014 6.24582 195.317 7.11644 196.777 8.97001C198.265 10.8236 199.01 13.2388 199.01 16.2158V26.3291H195.64ZM180.179 19.3753L183.676 15.1205L183.549 26.3291H180.179V19.3753Z" fill="#D5D5D5"/>
<path d="M159.911 6.95089H163.66L154.645 26.3291H150.341V6.95089H154.09V19.2519L159.911 6.95089Z" fill="#D5D5D5"/>
<path d="M115.204 26.3291L105.599 16.8086V26.3291H102.229V2.15871e-06H105.599V14.6601L114.15 6.95089H118.826L109.137 15.7554L119.88 26.3291H115.204Z" fill="#D5D5D5"/>
<path d="M138.174 19.6702L141.671 15.4154L141.544 26.3291H138.174V19.6702Z" fill="#D5D5D5"/>
<path d="M141.544 9.35212C143.369 7.63897 145.476 7.03514 147.863 6.95089V9.85763C146.206 9.96996 144.507 10.8968 142.765 12.638C142.316 13.0593 141.347 14.1686 139.859 15.966C138.033 18.1847 136.671 19.7714 135.772 20.7263V26.3291H132.402V23.6752C131.953 24.1245 131.124 24.7002 129.917 25.4023C128.709 26.0764 127.319 26.3853 125.746 26.3291C123.668 26.273 121.969 25.7534 120.649 24.7704C119.357 23.7594 118.683 22.3411 118.627 20.5157C118.571 18.4655 119.287 16.8366 120.775 15.629C122.264 14.4213 124.328 13.8175 126.968 13.8175H132.36C132.36 12.4133 131.939 11.4584 131.096 10.9529C130.282 10.4193 129.102 10.1525 127.558 10.1525H123.792V6.95089H127.389C130.198 6.95089 132.248 7.4845 133.54 8.55171C134.86 9.61891 135.59 11.3321 135.73 13.6912V14.323L132.402 18.0723V17.0191H126.968C125.479 17.0191 124.314 17.286 123.471 17.8196C122.657 18.3532 122.236 19.0974 122.208 20.0523C122.18 20.951 122.446 21.6671 123.008 22.2007C123.598 22.7062 124.398 23.0011 125.409 23.0854C126.476 23.1977 127.628 22.9309 128.864 22.285C130.099 21.6109 131.279 20.6982 132.402 19.5468C134.003 17.9179 135.829 15.7975 137.879 13.1856C138.047 12.961 138.146 12.8346 138.174 12.8065V6.95089H141.544V9.35212Z" fill="#D5D5D5"/>
<path d="M104.611 38.8473C104.161 38.8473 103.787 38.7743 103.487 38.6285C103.187 38.4826 102.962 38.2808 102.813 38.0231C102.663 37.7605 102.585 37.4591 102.581 37.1187H103.367C103.372 37.3424 103.419 37.5393 103.508 37.7095C103.602 37.8748 103.74 38.0012 103.922 38.0887C104.105 38.1763 104.341 38.22 104.632 38.22C104.871 38.22 105.079 38.1908 105.257 38.1325C105.435 38.0693 105.573 37.9745 105.671 37.848C105.77 37.7216 105.819 37.5587 105.819 37.3594C105.819 37.2086 105.795 37.0822 105.749 36.9801C105.702 36.878 105.624 36.7929 105.517 36.7248C105.414 36.6519 105.276 36.5911 105.102 36.5425C104.934 36.4939 104.723 36.4477 104.47 36.4039C104.18 36.3504 103.922 36.2872 103.698 36.2143C103.478 36.1365 103.293 36.0417 103.143 35.9298C102.998 35.8131 102.888 35.6721 102.813 35.5068C102.738 35.3415 102.7 35.147 102.7 34.9233C102.7 34.6121 102.775 34.3423 102.925 34.1137C103.075 33.8852 103.29 33.7101 103.571 33.5886C103.852 33.467 104.189 33.4062 104.583 33.4062C104.976 33.4062 105.311 33.4719 105.587 33.6032C105.863 33.7296 106.076 33.9095 106.226 34.1429C106.376 34.3714 106.451 34.6437 106.451 34.9598H105.678C105.669 34.7458 105.615 34.5708 105.517 34.4346C105.423 34.2936 105.294 34.1891 105.13 34.121C104.967 34.0529 104.775 34.0189 104.554 34.0189C104.33 34.0189 104.138 34.0505 103.979 34.1137C103.819 34.1769 103.698 34.2669 103.613 34.3836C103.529 34.5003 103.487 34.6462 103.487 34.8212C103.487 35.0011 103.529 35.1446 103.613 35.2515C103.698 35.3585 103.84 35.446 104.042 35.5141C104.243 35.5773 104.517 35.6405 104.864 35.7037C105.088 35.7378 105.306 35.7864 105.517 35.8496C105.727 35.9128 105.915 36.0003 106.079 36.1122C106.243 36.224 106.374 36.3772 106.472 36.5717C106.57 36.7613 106.619 37.0093 106.619 37.3156C106.619 37.6171 106.542 37.8845 106.388 38.1179C106.238 38.3464 106.013 38.5264 105.713 38.6576C105.418 38.7841 105.051 38.8473 104.611 38.8473Z" fill="#D5D5D5"/>
<path d="M107.359 38.7816V34.9233H108.047L108.075 35.6891H108.117C108.22 35.4169 108.382 35.2126 108.602 35.0765C108.827 34.9355 109.075 34.865 109.346 34.865C109.618 34.865 109.861 34.933 110.077 35.0692C110.297 35.2053 110.454 35.4387 110.547 35.7694H110.604C110.707 35.4679 110.875 35.2418 111.109 35.0911C111.348 34.9403 111.615 34.865 111.91 34.865C112.153 34.865 112.371 34.9185 112.563 35.0254C112.76 35.1324 112.914 35.305 113.027 35.5433C113.139 35.7815 113.195 36.0976 113.195 36.4914V38.7816H112.479V36.6446C112.479 36.382 112.448 36.1657 112.388 35.9955C112.327 35.8204 112.235 35.6916 112.114 35.6089C111.992 35.5263 111.833 35.4849 111.636 35.4849C111.435 35.4849 111.259 35.5384 111.109 35.6454C110.959 35.7524 110.842 35.8958 110.758 36.0757C110.678 36.2508 110.639 36.4501 110.639 36.6738V38.7816H109.915V36.6446C109.915 36.382 109.885 36.1657 109.824 35.9955C109.763 35.8204 109.672 35.6916 109.55 35.6089C109.428 35.5263 109.271 35.4849 109.079 35.4849C108.873 35.4849 108.695 35.5384 108.546 35.6454C108.396 35.7524 108.279 35.8958 108.194 36.0757C108.115 36.2508 108.075 36.4501 108.075 36.6738V38.7816H107.359Z" fill="#D5D5D5"/>
<path d="M115.441 38.8473C115.216 38.8473 115.008 38.8011 114.816 38.7087C114.628 38.6163 114.467 38.485 114.331 38.3148C114.195 38.1447 114.09 37.938 114.015 37.6949C113.945 37.4469 113.91 37.1649 113.91 36.8488C113.91 36.4307 113.973 36.0733 114.099 35.7767C114.23 35.4801 114.411 35.254 114.64 35.0984C114.869 34.9379 115.136 34.8577 115.441 34.8577C115.647 34.8577 115.834 34.8917 116.003 34.9598C116.171 35.0279 116.314 35.1227 116.431 35.2442C116.553 35.3609 116.639 35.5019 116.691 35.6673H116.733L116.761 34.9233H117.45V38.7816H116.761L116.733 38.0304H116.691C116.607 38.2735 116.454 38.4704 116.234 38.6212C116.014 38.7719 115.75 38.8473 115.441 38.8473ZM115.687 38.2273C115.911 38.2273 116.101 38.1738 116.255 38.0669C116.41 37.9599 116.527 37.8189 116.607 37.6438C116.686 37.4688 116.726 37.2767 116.726 37.0676V36.63C116.726 36.4161 116.684 36.2216 116.6 36.0465C116.52 35.8715 116.403 35.7329 116.248 35.6308C116.099 35.5238 115.916 35.4703 115.701 35.4703C115.481 35.4703 115.291 35.5263 115.132 35.6381C114.977 35.7499 114.858 35.908 114.773 36.1122C114.694 36.3164 114.654 36.5619 114.654 36.8488C114.654 37.1308 114.694 37.3764 114.773 37.5855C114.853 37.7946 114.97 37.955 115.125 38.0669C115.279 38.1738 115.466 38.2273 115.687 38.2273Z" fill="#D5D5D5"/>
<path d="M118.392 38.7816V34.9233H119.038L119.073 35.6089H119.108C119.188 35.3609 119.326 35.1762 119.523 35.0546C119.719 34.933 119.939 34.8723 120.183 34.8723C120.225 34.8723 120.262 34.8747 120.295 34.8796C120.333 34.8796 120.368 34.882 120.401 34.8868V35.5943C120.372 35.5895 120.337 35.587 120.295 35.587C120.258 35.587 120.218 35.587 120.176 35.587C119.956 35.587 119.768 35.6259 119.614 35.7037C119.459 35.7815 119.34 35.8958 119.256 36.0465C119.171 36.1924 119.122 36.3699 119.108 36.579V38.7816H118.392Z" fill="#D5D5D5"/>
<path d="M122.231 38.7816C121.95 38.7816 121.74 38.7136 121.599 38.5774C121.459 38.4364 121.389 38.2103 121.389 37.8991V35.536H120.686V34.9233H121.389V33.8074L122.105 33.7199V34.9233H122.934V35.536H122.112V37.7751C122.112 37.9113 122.142 38.0085 122.203 38.0669C122.269 38.1252 122.36 38.1544 122.477 38.1544H122.941V38.7816H122.231Z" fill="#D5D5D5"/>
<path d="M126.387 38.7816V34.07H127.146V38.7816H126.387ZM124.779 34.1575V33.4646H128.775V34.1575H124.779Z" fill="#D5D5D5"/>
<path d="M130.087 38.8473C129.727 38.8473 129.415 38.767 129.153 38.6066C128.895 38.4413 128.699 38.2103 128.563 37.9137C128.427 37.6171 128.359 37.2694 128.359 36.8707C128.359 36.4623 128.427 36.1073 128.563 35.8058C128.699 35.5044 128.893 35.2734 129.146 35.113C129.404 34.9476 129.71 34.865 130.066 34.865C130.455 34.865 130.775 34.9574 131.028 35.1421C131.286 35.322 131.471 35.5724 131.583 35.8934C131.696 36.2143 131.738 36.5838 131.71 37.002H129.069C129.073 37.284 129.118 37.5198 129.202 37.7095C129.286 37.8942 129.404 38.0352 129.553 38.1325C129.708 38.2249 129.886 38.2711 130.087 38.2711C130.331 38.2711 130.527 38.2152 130.677 38.1033C130.832 37.9915 130.935 37.8432 130.986 37.6584H131.675C131.637 37.9064 131.546 38.1203 131.401 38.3002C131.255 38.4753 131.07 38.6114 130.846 38.7087C130.621 38.8011 130.368 38.8473 130.087 38.8473ZM129.076 36.5863L129.005 36.4914H131.07L131 36.5935C131.005 36.3261 130.967 36.1073 130.888 35.9371C130.813 35.7669 130.703 35.643 130.558 35.5652C130.417 35.4825 130.253 35.4412 130.066 35.4412C129.869 35.4412 129.699 35.4849 129.553 35.5724C129.408 35.66 129.293 35.7888 129.209 35.959C129.125 36.1292 129.08 36.3383 129.076 36.5863Z" fill="#D5D5D5"/>
<path d="M134.039 38.8473C133.767 38.8473 133.519 38.8011 133.294 38.7087C133.074 38.6114 132.885 38.4753 132.725 38.3002C132.571 38.1252 132.449 37.9161 132.36 37.673C132.276 37.4299 132.234 37.1576 132.234 36.8561C132.234 36.5547 132.276 36.2824 132.36 36.0392C132.449 35.7961 132.573 35.587 132.732 35.412C132.896 35.2369 133.091 35.1032 133.315 35.0108C133.54 34.9136 133.791 34.865 134.067 34.865C134.362 34.865 134.627 34.9209 134.861 35.0327C135.095 35.1446 135.282 35.3026 135.423 35.5068C135.568 35.711 135.652 35.9469 135.675 36.2143H134.973C134.94 36.0538 134.879 35.9201 134.79 35.8131C134.701 35.7062 134.594 35.6259 134.467 35.5724C134.341 35.519 134.2 35.4922 134.046 35.4922C133.873 35.4922 133.718 35.5263 133.582 35.5943C133.451 35.6575 133.339 35.7499 133.245 35.8715C133.156 35.9882 133.088 36.1316 133.041 36.3018C132.995 36.4671 132.971 36.6543 132.971 36.8634C132.971 37.1503 133.016 37.3958 133.105 37.6001C133.194 37.7994 133.318 37.9526 133.477 38.0596C133.636 38.1665 133.823 38.22 134.039 38.22C134.217 38.22 134.371 38.1884 134.502 38.1252C134.634 38.0571 134.741 37.9672 134.826 37.8553C134.91 37.7386 134.964 37.6025 134.987 37.4469H135.696C135.668 37.7289 135.579 37.9769 135.43 38.1908C135.284 38.3999 135.092 38.5628 134.854 38.6795C134.615 38.7914 134.343 38.8473 134.039 38.8473Z" fill="#D5D5D5"/>
<path d="M136.373 38.7816V33.4646H137.09V35.6891H137.132C137.24 35.4169 137.408 35.2126 137.638 35.0765C137.867 34.9355 138.118 34.865 138.389 34.865C138.581 34.865 138.757 34.8941 138.916 34.9525C139.08 35.0108 139.22 35.1057 139.337 35.2369C139.459 35.3634 139.553 35.5311 139.618 35.7402C139.684 35.9444 139.717 36.1948 139.717 36.4914V38.7816H138.993V36.6446C138.993 36.382 138.963 36.1657 138.902 35.9955C138.841 35.8204 138.747 35.6916 138.621 35.6089C138.495 35.5263 138.331 35.4849 138.129 35.4849C137.919 35.4849 137.734 35.5384 137.575 35.6454C137.42 35.7524 137.301 35.8958 137.216 36.0757C137.132 36.2508 137.09 36.4501 137.09 36.6738V38.7816H136.373Z" fill="#D5D5D5"/>
<path d="M140.841 38.8327C140.724 38.8327 140.628 38.7986 140.553 38.7306C140.479 38.6576 140.441 38.5604 140.441 38.4388C140.441 38.3221 140.479 38.2273 140.553 38.1544C140.628 38.0814 140.724 38.045 140.841 38.045C140.963 38.045 141.061 38.0814 141.136 38.1544C141.211 38.2273 141.249 38.3221 141.249 38.4388C141.249 38.5604 141.211 38.6576 141.136 38.7306C141.061 38.7986 140.963 38.8327 140.841 38.8327Z" fill="#D5D5D5"/>
<path d="M145.273 38.8473C144.823 38.8473 144.449 38.7743 144.149 38.6285C143.849 38.4826 143.624 38.2808 143.475 38.0231C143.325 37.7605 143.248 37.4591 143.243 37.1187H144.03C144.034 37.3424 144.081 37.5393 144.17 37.7095C144.264 37.8748 144.402 38.0012 144.584 38.0887C144.767 38.1763 145.003 38.22 145.294 38.22C145.533 38.22 145.741 38.1908 145.919 38.1325C146.097 38.0693 146.235 37.9745 146.333 37.848C146.432 37.7216 146.481 37.5587 146.481 37.3594C146.481 37.2086 146.457 37.0822 146.411 36.9801C146.364 36.878 146.286 36.7929 146.179 36.7248C146.076 36.6519 145.938 36.5911 145.764 36.5425C145.596 36.4939 145.385 36.4477 145.132 36.4039C144.842 36.3504 144.584 36.2872 144.36 36.2143C144.14 36.1365 143.955 36.0417 143.805 35.9298C143.66 35.8131 143.55 35.6721 143.475 35.5068C143.4 35.3415 143.362 35.147 143.362 34.9233C143.362 34.6121 143.437 34.3423 143.587 34.1137C143.737 33.8852 143.952 33.7101 144.233 33.5886C144.514 33.467 144.851 33.4062 145.245 33.4062C145.638 33.4062 145.973 33.4719 146.249 33.6032C146.525 33.7296 146.738 33.9095 146.888 34.1429C147.038 34.3714 147.113 34.6437 147.113 34.9598H146.34C146.331 34.7458 146.277 34.5708 146.179 34.4346C146.085 34.2936 145.956 34.1891 145.792 34.121C145.629 34.0529 145.437 34.0189 145.217 34.0189C144.992 34.0189 144.8 34.0505 144.641 34.1137C144.481 34.1769 144.36 34.2669 144.275 34.3836C144.191 34.5003 144.149 34.6462 144.149 34.8212C144.149 35.0011 144.191 35.1446 144.275 35.2515C144.36 35.3585 144.502 35.446 144.704 35.5141C144.905 35.5773 145.179 35.6405 145.526 35.7037C145.75 35.7378 145.968 35.7864 146.179 35.8496C146.389 35.9128 146.577 36.0003 146.741 36.1122C146.905 36.224 147.036 36.3772 147.134 36.5717C147.232 36.7613 147.282 37.0093 147.282 37.3156C147.282 37.6171 147.204 37.8845 147.05 38.1179C146.9 38.3464 146.675 38.5264 146.375 38.6576C146.08 38.7841 145.713 38.8473 145.273 38.8473Z" fill="#D5D5D5"/>
<path d="M148.034 38.7816V34.9233H148.758V38.7816H148.034ZM148.4 34.3325C148.278 34.3325 148.177 34.2985 148.098 34.2304C148.018 34.1624 147.978 34.0675 147.978 33.946C147.978 33.8244 148.018 33.7296 148.098 33.6615C148.177 33.5935 148.278 33.5594 148.4 33.5594C148.521 33.5594 148.622 33.5935 148.702 33.6615C148.781 33.7296 148.821 33.8244 148.821 33.946C148.821 34.0675 148.781 34.1624 148.702 34.2304C148.622 34.2985 148.521 34.3325 148.4 34.3325Z" fill="#D5D5D5"/>
<path d="M149.693 38.7816V34.9233H150.381L150.409 35.6891H150.451C150.554 35.4169 150.716 35.2126 150.936 35.0765C151.161 34.9355 151.409 34.865 151.68 34.865C151.952 34.865 152.195 34.933 152.411 35.0692C152.631 35.2053 152.788 35.4387 152.881 35.7694H152.938C153.041 35.4679 153.209 35.2418 153.443 35.0911C153.682 34.9403 153.949 34.865 154.244 34.865C154.488 34.865 154.705 34.9185 154.897 35.0254C155.094 35.1324 155.248 35.305 155.361 35.5433C155.473 35.7815 155.529 36.0976 155.529 36.4914V38.7816H154.813V36.6446C154.813 36.382 154.783 36.1657 154.722 35.9955C154.661 35.8204 154.569 35.6916 154.448 35.6089C154.326 35.5263 154.167 35.4849 153.97 35.4849C153.769 35.4849 153.593 35.5384 153.443 35.6454C153.293 35.7524 153.176 35.8958 153.092 36.0757C153.013 36.2508 152.973 36.4501 152.973 36.6738V38.7816H152.249V36.6446C152.249 36.382 152.219 36.1657 152.158 35.9955C152.097 35.8204 152.006 35.6916 151.884 35.6089C151.762 35.5263 151.605 35.4849 151.413 35.4849C151.207 35.4849 151.029 35.5384 150.88 35.6454C150.73 35.7524 150.613 35.8958 150.528 36.0757C150.449 36.2508 150.409 36.4501 150.409 36.6738V38.7816H149.693Z" fill="#D5D5D5"/>
<path d="M156.399 39.9997V34.9233H157.081L157.109 35.6746H157.151C157.235 35.4314 157.387 35.2369 157.607 35.0911C157.832 34.9403 158.097 34.865 158.401 34.865C158.63 34.865 158.839 34.9112 159.026 35.0035C159.213 35.0911 159.375 35.2199 159.511 35.3901C159.647 35.5603 159.75 35.7694 159.82 36.0174C159.895 36.2653 159.932 36.5449 159.932 36.8561C159.932 37.2743 159.869 37.6341 159.743 37.9356C159.616 38.2322 159.438 38.4583 159.209 38.6139C158.979 38.7695 158.71 38.8473 158.401 38.8473C158.2 38.8473 158.015 38.8157 157.846 38.7525C157.678 38.6844 157.535 38.5896 157.418 38.468C157.301 38.3416 157.212 38.1981 157.151 38.0377H157.123V39.9997H156.399ZM158.141 38.2346C158.366 38.2346 158.556 38.1811 158.71 38.0741C158.865 37.9623 158.984 37.8043 159.068 37.6001C159.153 37.391 159.195 37.143 159.195 36.8561C159.195 36.5692 159.153 36.3237 159.068 36.1195C158.989 35.9152 158.872 35.7596 158.717 35.6527C158.563 35.5408 158.375 35.4849 158.155 35.4849C157.935 35.4849 157.748 35.5384 157.593 35.6454C157.439 35.7475 157.322 35.8861 157.242 36.0611C157.162 36.2362 157.123 36.4282 157.123 36.6373V37.0749C157.123 37.2889 157.162 37.4834 157.242 37.6584C157.322 37.8335 157.439 37.9745 157.593 38.0814C157.748 38.1836 157.93 38.2346 158.141 38.2346Z" fill="#D5D5D5"/>
<path d="M160.678 38.7816V33.4646H161.401V38.7816H160.678Z" fill="#D5D5D5"/>
<path d="M163.811 38.8473C163.45 38.8473 163.139 38.767 162.877 38.6066C162.619 38.4413 162.423 38.2103 162.287 37.9137C162.151 37.6171 162.083 37.2694 162.083 36.8707C162.083 36.4623 162.151 36.1073 162.287 35.8058C162.423 35.5044 162.617 35.2734 162.87 35.113C163.127 34.9476 163.434 34.865 163.79 34.865C164.179 34.865 164.499 34.9574 164.752 35.1421C165.01 35.322 165.195 35.5724 165.307 35.8934C165.419 36.2143 165.462 36.5838 165.433 37.002H162.793C162.797 37.284 162.842 37.5198 162.926 37.7095C163.01 37.8942 163.127 38.0352 163.277 38.1325C163.432 38.2249 163.61 38.2711 163.811 38.2711C164.054 38.2711 164.251 38.2152 164.401 38.1033C164.556 37.9915 164.659 37.8432 164.71 37.6584H165.398C165.361 37.9064 165.27 38.1203 165.124 38.3002C164.979 38.4753 164.794 38.6114 164.57 38.7087C164.345 38.8011 164.092 38.8473 163.811 38.8473ZM162.8 36.5863L162.729 36.4914H164.794L164.724 36.5935C164.729 36.3261 164.691 36.1073 164.612 35.9371C164.537 35.7669 164.427 35.643 164.282 35.5652C164.141 35.4825 163.977 35.4412 163.79 35.4412C163.593 35.4412 163.422 35.4849 163.277 35.5724C163.132 35.66 163.017 35.7888 162.933 35.959C162.849 36.1292 162.804 36.3383 162.8 36.5863Z" fill="#D5D5D5"/>
<path d="M169.426 38.8473C168.977 38.8473 168.602 38.7743 168.302 38.6285C168.003 38.4826 167.778 38.2808 167.628 38.0231C167.478 37.7605 167.401 37.4591 167.396 37.1187H168.183C168.188 37.3424 168.234 37.5393 168.323 37.7095C168.417 37.8748 168.555 38.0012 168.738 38.0887C168.92 38.1763 169.157 38.22 169.447 38.22C169.686 38.22 169.894 38.1908 170.072 38.1325C170.25 38.0693 170.388 37.9745 170.487 37.848C170.585 37.7216 170.634 37.5587 170.634 37.3594C170.634 37.2086 170.611 37.0822 170.564 36.9801C170.517 36.878 170.44 36.7929 170.332 36.7248C170.229 36.6519 170.091 36.5911 169.918 36.5425C169.749 36.4939 169.538 36.4477 169.286 36.4039C168.995 36.3504 168.738 36.2872 168.513 36.2143C168.293 36.1365 168.108 36.0417 167.958 35.9298C167.813 35.8131 167.703 35.6721 167.628 35.5068C167.553 35.3415 167.516 35.147 167.516 34.9233C167.516 34.6121 167.591 34.3423 167.74 34.1137C167.89 33.8852 168.106 33.7101 168.387 33.5886C168.668 33.467 169.005 33.4062 169.398 33.4062C169.791 33.4062 170.126 33.4719 170.402 33.6032C170.679 33.7296 170.892 33.9095 171.042 34.1429C171.191 34.3714 171.266 34.6437 171.266 34.9598H170.494C170.484 34.7458 170.43 34.5708 170.332 34.4346C170.239 34.2936 170.11 34.1891 169.946 34.121C169.782 34.0529 169.59 34.0189 169.37 34.0189C169.145 34.0189 168.953 34.0505 168.794 34.1137C168.635 34.1769 168.513 34.2669 168.429 34.3836C168.344 34.5003 168.302 34.6462 168.302 34.8212C168.302 35.0011 168.344 35.1446 168.429 35.2515C168.513 35.3585 168.656 35.446 168.857 35.5141C169.059 35.5773 169.332 35.6405 169.679 35.7037C169.904 35.7378 170.121 35.7864 170.332 35.8496C170.543 35.9128 170.73 36.0003 170.894 36.1122C171.058 36.224 171.189 36.3772 171.287 36.5717C171.386 36.7613 171.435 37.0093 171.435 37.3156C171.435 37.6171 171.358 37.8845 171.203 38.1179C171.053 38.3464 170.828 38.5264 170.529 38.6576C170.234 38.7841 169.866 38.8473 169.426 38.8473Z" fill="#D5D5D5"/>
<path d="M173.858 38.8473C173.586 38.8473 173.338 38.8011 173.113 38.7087C172.893 38.6163 172.703 38.4826 172.544 38.3075C172.385 38.1325 172.261 37.9234 172.172 37.6803C172.083 37.4372 172.038 37.1649 172.038 36.8634C172.038 36.4647 172.111 36.117 172.256 35.8204C172.406 35.519 172.617 35.2856 172.888 35.1202C173.165 34.9501 173.488 34.865 173.858 34.865C174.129 34.865 174.375 34.9112 174.595 35.0035C174.82 35.0911 175.012 35.2224 175.171 35.3974C175.33 35.5724 175.452 35.784 175.536 36.0319C175.625 36.2751 175.67 36.5498 175.67 36.8561C175.67 37.25 175.597 37.5976 175.452 37.8991C175.307 38.1957 175.098 38.4291 174.827 38.5993C174.555 38.7646 174.232 38.8473 173.858 38.8473ZM173.858 38.22C174.073 38.22 174.26 38.169 174.419 38.0669C174.583 37.9599 174.71 37.8043 174.799 37.6001C174.888 37.3958 174.932 37.1479 174.932 36.8561C174.932 36.6373 174.906 36.4452 174.855 36.2799C174.808 36.1097 174.738 35.9663 174.644 35.8496C174.551 35.728 174.438 35.6381 174.307 35.5797C174.176 35.5165 174.026 35.4849 173.858 35.4849C173.642 35.4849 173.453 35.5384 173.289 35.6454C173.129 35.7524 173.003 35.908 172.909 36.1122C172.82 36.3115 172.776 36.5619 172.776 36.8634C172.776 37.0774 172.799 37.2694 172.846 37.4396C172.898 37.6049 172.97 37.7459 173.064 37.8626C173.162 37.9793 173.277 38.0693 173.408 38.1325C173.544 38.1908 173.694 38.22 173.858 38.22Z" fill="#D5D5D5"/>
<path d="M176.384 38.7816V33.4646H177.107V38.7816H176.384Z" fill="#D5D5D5"/>
<path d="M179.313 38.8473C179.032 38.8473 178.791 38.7914 178.59 38.6795C178.389 38.5628 178.236 38.3902 178.133 38.1617C178.03 37.9283 177.979 37.6414 177.979 37.301V34.9233H178.702V37.1114C178.702 37.3497 178.73 37.5514 178.787 37.7168C178.848 37.8821 178.944 38.0085 179.075 38.096C179.206 38.1787 179.374 38.22 179.58 38.22C179.786 38.22 179.964 38.169 180.114 38.0669C180.269 37.9647 180.388 37.8213 180.472 37.6365C180.557 37.4518 180.599 37.2427 180.599 37.0093V34.9233H181.322V38.7816H180.634L180.599 38.0012H180.557C180.463 38.2638 180.304 38.4704 180.079 38.6212C179.854 38.7719 179.599 38.8473 179.313 38.8473Z" fill="#D5D5D5"/>
<path d="M183.404 38.7816C183.198 38.7816 183.036 38.7525 182.919 38.6941C182.802 38.6309 182.72 38.5385 182.673 38.4169C182.626 38.2954 182.603 38.1495 182.603 37.9793V35.536H181.901V34.9233H182.603V33.8074L183.319 33.7199V34.9233H185.588V38.7816H184.865V35.536H183.319V37.8408C183.319 37.972 183.343 38.0596 183.39 38.1033C183.441 38.1422 183.525 38.1617 183.642 38.1617H184.148V38.7816H183.404ZM185.23 34.3325C185.103 34.3325 185 34.2985 184.921 34.2304C184.846 34.1624 184.808 34.0675 184.808 33.946C184.808 33.8244 184.846 33.7296 184.921 33.6615C185 33.5935 185.103 33.5594 185.23 33.5594C185.352 33.5594 185.45 33.5935 185.525 33.6615C185.604 33.7296 185.644 33.8244 185.644 33.946C185.644 34.0675 185.604 34.1624 185.525 34.2304C185.45 34.2985 185.352 34.3325 185.23 34.3325Z" fill="#D5D5D5"/>
<path d="M188.118 38.8473C187.846 38.8473 187.598 38.8011 187.374 38.7087C187.153 38.6163 186.964 38.4826 186.805 38.3075C186.645 38.1325 186.521 37.9234 186.432 37.6803C186.343 37.4372 186.299 37.1649 186.299 36.8634C186.299 36.4647 186.371 36.117 186.517 35.8204C186.666 35.519 186.877 35.2856 187.149 35.1202C187.425 34.9501 187.748 34.865 188.118 34.865C188.39 34.865 188.635 34.9112 188.856 35.0035C189.08 35.0911 189.272 35.2224 189.431 35.3974C189.591 35.5724 189.712 35.784 189.797 36.0319C189.886 36.2751 189.93 36.5498 189.93 36.8561C189.93 37.25 189.858 37.5976 189.712 37.8991C189.567 38.1957 189.359 38.4291 189.087 38.5993C188.816 38.7646 188.493 38.8473 188.118 38.8473ZM188.118 38.22C188.333 38.22 188.521 38.169 188.68 38.0669C188.844 37.9599 188.97 37.8043 189.059 37.6001C189.148 37.3958 189.193 37.1479 189.193 36.8561C189.193 36.6373 189.167 36.4452 189.115 36.2799C189.069 36.1097 188.998 35.9663 188.905 35.8496C188.811 35.728 188.699 35.6381 188.568 35.5797C188.436 35.5165 188.287 35.4849 188.118 35.4849C187.903 35.4849 187.713 35.5384 187.549 35.6454C187.39 35.7524 187.263 35.908 187.17 36.1122C187.081 36.3115 187.036 36.5619 187.036 36.8634C187.036 37.0774 187.06 37.2694 187.107 37.4396C187.158 37.6049 187.231 37.7459 187.324 37.8626C187.423 37.9793 187.537 38.0693 187.669 38.1325C187.804 38.1908 187.954 38.22 188.118 38.22Z" fill="#D5D5D5"/>
<path d="M190.644 38.7816V34.9233H191.333L191.361 35.6891H191.403C191.511 35.4169 191.679 35.2126 191.909 35.0765C192.138 34.9355 192.389 34.865 192.66 34.865C192.852 34.865 193.028 34.8941 193.187 34.9525C193.351 35.0108 193.491 35.1057 193.608 35.2369C193.73 35.3634 193.824 35.5311 193.889 35.7402C193.955 35.9444 193.988 36.1948 193.988 36.4914V38.7816H193.264V36.6446C193.264 36.382 193.234 36.1657 193.173 35.9955C193.112 35.8204 193.018 35.6916 192.892 35.6089C192.766 35.5263 192.602 35.4849 192.4 35.4849C192.19 35.4849 192.005 35.5384 191.845 35.6454C191.691 35.7524 191.572 35.8958 191.487 36.0757C191.403 36.2508 191.361 36.4501 191.361 36.6738V38.7816H190.644Z" fill="#D5D5D5"/>
<path d="M196.168 38.8546C195.933 38.8546 195.72 38.8254 195.528 38.767C195.341 38.7087 195.18 38.626 195.044 38.5191C194.908 38.4121 194.803 38.2832 194.728 38.1325C194.657 37.9769 194.62 37.8091 194.615 37.6292H195.332C195.341 37.78 195.381 37.9064 195.451 38.0085C195.526 38.1106 195.627 38.186 195.753 38.2346C195.884 38.2832 196.029 38.3075 196.189 38.3075C196.441 38.3075 196.633 38.2589 196.765 38.1617C196.9 38.0596 196.968 37.9186 196.968 37.7386C196.968 37.6025 196.938 37.498 196.877 37.425C196.821 37.3472 196.729 37.2864 196.603 37.2427C196.477 37.1989 196.31 37.1624 196.104 37.1333C195.795 37.0847 195.538 37.0214 195.332 36.9436C195.126 36.861 194.971 36.7467 194.868 36.6008C194.765 36.4501 194.714 36.2556 194.714 36.0174C194.714 35.784 194.774 35.5822 194.896 35.412C195.018 35.2369 195.189 35.1008 195.409 35.0035C195.629 34.9014 195.887 34.8504 196.182 34.8504C196.472 34.8504 196.722 34.899 196.933 34.9963C197.149 35.0935 197.317 35.2296 197.439 35.4047C197.561 35.5797 197.626 35.7888 197.636 36.0319H196.926C196.917 35.8812 196.879 35.7596 196.814 35.6673C196.753 35.5749 196.666 35.5092 196.554 35.4703C196.446 35.4266 196.317 35.4047 196.168 35.4047C195.938 35.4047 195.758 35.4533 195.627 35.5506C195.5 35.6478 195.437 35.7791 195.437 35.9444C195.437 36.0708 195.47 36.173 195.535 36.2508C195.601 36.3237 195.702 36.382 195.837 36.4258C195.978 36.4647 196.156 36.5012 196.371 36.5352C196.657 36.5741 196.9 36.6349 197.102 36.7175C197.303 36.8002 197.453 36.9169 197.551 37.0676C197.654 37.2184 197.706 37.4202 197.706 37.673C197.706 37.9258 197.643 38.1398 197.516 38.3148C197.39 38.4899 197.209 38.6236 196.975 38.716C196.746 38.8084 196.477 38.8546 196.168 38.8546Z" fill="#D5D5D5"/>
<path d="M198.602 38.8327C198.485 38.8327 198.389 38.7986 198.314 38.7306C198.239 38.6576 198.202 38.5604 198.202 38.4388C198.202 38.3221 198.239 38.2273 198.314 38.1544C198.389 38.0814 198.485 38.045 198.602 38.045C198.724 38.045 198.822 38.0814 198.897 38.1544C198.972 38.2273 199.009 38.3221 199.009 38.4388C199.009 38.5604 198.972 38.6576 198.897 38.7306C198.822 38.7986 198.724 38.8327 198.602 38.8327Z" fill="#D5D5D5"/>
<defs>
<linearGradient id="paint0_linear_71_3812" x1="0.00027052" y1="0.0643264" x2="26.3676" y2="36.6449" gradientUnits="userSpaceOnUse">
<stop stop-color="#FCCCBF"/>
<stop offset="0.25" stop-color="#FF5A57"/>
<stop offset="0.5" stop-color="#E02F75"/>
<stop offset="1" stop-color="#6700A3"/>
</linearGradient>
<linearGradient id="paint1_linear_71_3812" x1="3.62661" y1="7.71933" x2="4.94653" y2="15.1926" gradientUnits="userSpaceOnUse">
<stop/>
<stop offset="1" stop-opacity="0"/>
</linearGradient>
</defs>
</svg>
