<svg width="1280" height="215" viewBox="0 0 1280 215" fill="none" xmlns="http://www.w3.org/2000/svg">
<g opacity="0.2">
<path fill-rule="evenodd" clip-rule="evenodd" d="M27.1411 0C12.1516 0 0.000154961 11.8551 0.000154961 26.479V143.152C0.000154961 157.776 12.1516 169.631 27.1411 169.631H82.6953C130.709 169.631 169.631 131.658 169.631 84.8157C169.631 37.9733 130.709 0 82.6953 0H27.1411ZM87.054 126.546L42.7635 43.8559H84.8157C108.237 43.8559 127.223 62.3795 127.223 85.2294C127.223 107.347 109.435 125.411 87.054 126.546Z" fill="#363636"/>
<path fill-rule="evenodd" clip-rule="evenodd" d="M42.7633 43.8573L87.0539 126.548C86.3127 126.585 85.5664 126.604 84.8156 126.604H42.4078C18.9866 126.604 0 108.081 0 85.2308C0 62.3809 18.9866 43.8573 42.4078 43.8573H42.7633Z" fill="url(#paint0_linear_102_15)" fill-opacity="0.6"/>
<path d="M613.224 170.7V1.38845e-05H634.9V170.7H613.224Z" fill="#363636"/>
<path d="M566.779 71.8026C561.541 68.3705 553.954 66.6545 544.019 66.6545H445.663V122.742C445.663 132.315 447.65 138.999 451.624 142.792C455.598 146.405 462.011 148.211 470.862 148.211H479.803V168.804H471.946C439.793 168.804 423.716 153.45 423.716 122.742V66.6545H403.395V46.0621H423.716V22.2183H445.392V46.0621H542.935C562.083 46.0621 575.811 49.9458 584.12 57.7131C592.61 65.4804 596.855 78.1248 596.855 95.6464V170.7H575.179V153.63C574.998 153.63 574.817 153.811 574.637 154.172C570.301 159.049 565.786 162.933 561.089 165.823C556.393 168.533 549.528 170.158 540.497 170.7C525.143 171.784 512.408 169.074 502.292 162.572C492.177 156.069 486.938 146.314 486.577 133.309C486.216 120.122 490.822 109.646 500.396 101.878C509.969 94.111 523.246 90.2274 540.226 90.2274H574.908C574.908 81.1956 572.198 75.054 566.779 71.8026ZM575.179 110.82H540.226C530.652 110.82 523.156 112.626 517.737 116.239C512.498 119.671 509.789 124.367 509.608 130.328C509.427 137.915 512.318 143.334 518.279 146.585C524.42 149.837 532.278 150.74 541.852 149.295C547.993 148.392 553.502 146.224 558.38 142.792C563.257 139.179 567.231 135.386 570.302 131.412C573.553 127.438 575.179 125.451 575.179 125.451V110.82Z" fill="#363636"/>
<path d="M391.524 12.1925C388.814 9.48301 385.472 8.12825 381.498 8.12825C377.705 8.12825 374.454 9.48301 371.744 12.1925C369.034 14.9021 367.68 18.2438 367.68 22.2178C367.68 26.0111 369.034 29.2625 371.744 31.9721C374.454 34.6816 377.705 36.0363 381.498 36.0363C385.472 36.0363 388.814 34.6816 391.524 31.9721C394.233 29.2625 395.588 26.0111 395.588 22.2178C395.588 18.2438 394.233 14.9021 391.524 12.1925ZM370.66 170.701V46.0616H392.336V170.701H370.66Z" fill="#363636"/>
<path d="M332.009 170.701V153.631C319.907 164.831 306.449 170.521 291.637 170.701C280.077 170.882 269.419 168.172 259.665 162.573C250.091 156.973 242.414 149.296 236.634 139.542C231.034 129.607 228.235 118.949 228.235 107.569C228.235 96.0086 231.034 85.3512 236.634 75.5969C242.414 65.8426 250.091 58.1656 259.665 52.566C269.419 46.7856 280.077 43.9858 291.637 44.1664C298.863 44.347 305.908 45.9728 312.772 49.0436C319.816 52.1144 326.229 56.269 332.009 61.5074V46.0631H353.956V165.282C353.956 182.804 349.712 195.448 341.222 203.215C332.913 210.983 319.184 214.866 300.037 214.866H292.902V194.545H301.121C311.056 194.545 318.642 192.829 323.881 189.397C329.3 186.145 332.009 179.914 332.009 170.701ZM332.009 108.653V106.756C331.829 95.7377 327.764 86.3447 319.816 78.5774C312.049 70.8101 302.656 66.9264 291.637 66.9264C280.257 66.9264 270.593 70.9004 262.645 78.8483C254.878 86.7963 250.995 96.3699 250.995 107.569C250.995 118.769 254.878 128.342 262.645 136.29C270.593 144.238 280.257 148.212 291.637 148.212C302.475 148.212 311.868 144.419 319.816 136.832C327.764 129.065 331.829 119.672 332.009 108.653Z" fill="#363636"/>
<path d="M216.092 12.1925C213.383 9.48301 210.041 8.12825 206.067 8.12825C202.274 8.12825 199.022 9.48301 196.313 12.1925C193.603 14.9021 192.249 18.2438 192.249 22.2178C192.249 26.0111 193.603 29.2625 196.313 31.9721C199.022 34.6816 202.274 36.0363 206.067 36.0363C210.041 36.0363 213.383 34.6816 216.092 31.9721C218.802 29.2625 220.157 26.0111 220.157 22.2178C220.157 18.2438 218.802 14.9021 216.092 12.1925ZM195.229 170.701V46.0616H216.905V170.701H195.229Z" fill="#363636"/>
<path d="M1258.32 169.345V104.298C1258.32 91.2919 1255.61 80.7248 1250.2 72.5962C1244.78 64.4676 1235.11 60.7646 1221.2 61.4871C1210.55 62.2097 1199.62 68.1707 1188.42 79.37C1185.53 82.0795 1179.3 89.2146 1169.72 100.775C1157.98 115.045 1149.22 125.251 1143.44 131.393V169.345H1121.76V150.36C1118.87 153.25 1113.54 156.953 1105.78 161.469C1098.01 165.804 1089.07 167.791 1078.95 167.43C1065.59 167.068 1054.66 163.726 1046.17 157.404C1037.86 150.901 1033.52 141.779 1033.16 130.038C1032.8 116.852 1037.41 106.375 1046.98 98.6076C1056.55 90.8403 1069.83 86.9567 1086.81 86.9567H1121.49C1121.49 77.9249 1118.78 71.7833 1113.36 68.5319C1108.13 65.0998 1100.54 63.3838 1090.6 63.3838H1066.38V44.7071H1089.52C1107.58 44.7071 1120.77 46.2235 1129.08 53.0876C1137.57 59.9517 1142.27 70.9705 1143.17 86.1439V90.2081L1121.76 114.323V107.549H1086.81C1077.24 107.549 1069.74 109.265 1064.32 112.697C1059.08 116.129 1056.37 120.916 1056.19 127.058C1056.01 132.838 1057.73 137.444 1061.34 140.876C1065.13 144.128 1070.28 146.024 1076.79 146.566C1083.65 147.289 1091.06 145.573 1099 141.418C1106.95 137.083 1114.54 131.212 1121.76 123.806C1132.06 113.329 1143.8 99.6915 1156.99 82.8924C1158.07 81.4473 1158.7 80.6344 1158.88 80.4538V44.7071H1180.56V58.2357C1192.3 47.217 1205.85 41.4367 1221.2 40.8948C1241.43 40.1722 1256.25 45.7719 1265.64 57.6938C1275.21 69.6157 1280 85.1503 1280 104.298V169.345H1258.32ZM1158.88 124.619L1181.37 97.2529L1180.56 169.345H1158.88V124.619Z" fill="#363636"/>
<path d="M1028.52 44.7071H1052.64L994.654 169.345H966.967V44.7071H991.082V123.825L1028.52 44.7071Z" fill="#363636"/>
<path d="M740.971 169.345L679.194 108.11V169.345H657.518V1.38845e-05H679.194V94.2916L734.197 44.7071H764.273L701.954 101.336L771.047 169.345H740.971Z" fill="#363636"/>
<path d="M888.714 126.516L911.203 99.1496L910.39 169.345H888.714V126.516Z" fill="#363636"/>
<path d="M910.387 60.1515C922.129 49.1327 935.676 45.249 951.03 44.7071V63.4028C940.373 64.1254 929.444 70.0864 918.245 81.2857C915.355 83.9952 909.123 91.1303 899.549 102.691C887.808 116.961 879.047 127.167 873.267 133.309V169.345H851.591V152.275C848.701 155.165 843.372 158.868 835.605 163.384C827.837 167.719 818.896 169.706 808.78 169.345C795.413 168.984 784.485 165.642 775.995 159.32C767.686 152.817 763.351 143.695 762.989 131.954C762.628 118.767 767.234 108.291 776.808 100.523C786.382 92.756 799.658 88.8724 816.638 88.8724H851.32C851.32 79.8407 848.61 73.699 843.191 70.4476C837.953 67.0155 830.366 65.2995 820.431 65.2995H796.21V44.7071H819.347C837.411 44.7071 850.597 48.1392 858.906 55.0034C867.396 61.8675 872.093 72.8862 872.996 88.0596V92.1238L851.591 116.239V109.465H816.638C807.064 109.465 799.568 111.181 794.149 114.613C788.911 118.045 786.201 122.832 786.02 128.973C785.84 134.754 787.556 139.36 791.168 142.792C794.962 146.043 800.11 147.94 806.613 148.482C813.477 149.204 820.883 147.488 828.831 143.334C836.779 138.999 844.365 133.128 851.591 125.722C861.887 115.245 873.628 101.607 886.815 84.8081C887.898 83.363 888.531 82.5501 888.711 82.3695V44.7071H910.387V60.1515Z" fill="#363636"/>
</g>
<defs>
<linearGradient id="paint0_linear_102_15" x1="23.3243" y1="49.6496" x2="31.8138" y2="97.7164" gradientUnits="userSpaceOnUse">
<stop/>
<stop offset="1" stop-opacity="0"/>
</linearGradient>
</defs>
</svg>
